<?xml version="1.0" encoding="utf-8"?>
<!-- Generator: Adobe Illustrator 21.0.0, SVG Export Plug-In . SVG Version: 6.00 Build 0)  -->
<svg version="1.1" id="Layer_1" xmlns="http://www.w3.org/2000/svg" xmlns:xlink="http://www.w3.org/1999/xlink" x="0px" y="0px"
	 viewBox="0 0 448 302" style="enable-background:new 0 0 448 302;" xml:space="preserve">
<style type="text/css">
	.st0{fill:#FFFFFF;}
</style>
<g>
	<path class="st0" d="M273.8,14H172.3c-7.9,0-14.3,6.4-14.3,14.3v101.5c0,7.9,6.4,14.3,14.3,14.3h101.5c7.9,0,14.3-6.4,14.3-14.3
		V28.3C288,20.4,281.6,14,273.8,14z M229,78v51h-12V78h-19c8.3-16,16.7-32,25-48c8.3,16,16.7,32,25,48H229z"/>
</g>
<g>
	<path class="st0" d="M288,272.8V171.3c0-7.9-6.4-14.3-14.3-14.3H172.3c-7.9,0-14.3,6.4-14.3,14.3v101.5c0,7.9,6.4,14.3,14.3,14.3
		h101.5C281.6,287,288,280.6,288,272.8z M248,223c-8.3,16-16.7,32-25,48c-8.3-16-16.7-32-25-48h19v-51h12v51H248z"/>
</g>
<g>
	<path class="st0" d="M288,272.8V171.3c0-7.9-6.4-14.3-14.3-14.3H172.3c-7.9,0-14.3,6.4-14.3,14.3v101.5c0,7.9,6.4,14.3,14.3,14.3
		h101.5C281.6,287,288,280.6,288,272.8z M248,223c-8.3,16-16.7,32-25,48c-8.3-16-16.7-32-25-48h19v-51h12v51H248z"/>
</g>
<g>
	<path class="st0" d="M418.8,157H317.3c-7.9,0-14.3,6.4-14.3,14.3v101.5c0,7.9,6.4,14.3,14.3,14.3h101.5c7.9,0,14.3-6.4,14.3-14.3
		V171.3C433,163.4,426.6,157,418.8,157z M369,197c16,8.3,32,16.7,48,25c-16,8.3-32,16.7-48,25v-19h-51v-12h51V197z"/>
</g>
<g>
	<path class="st0" d="M27.3,287h101.5c7.9,0,14.3-6.4,14.3-14.3V171.3c0-7.9-6.4-14.3-14.3-14.3H27.3c-7.9,0-14.3,6.4-14.3,14.3
		v101.5C13,280.6,19.4,287,27.3,287z M77,247c-16-8.3-32-16.7-48-25c16-8.3,32-16.7,48-25v19h51v12H77V247z"/>
</g>
</svg>
