<?xml version="1.0" encoding="utf-8"?>
<!-- Generator: Adobe Illustrator 21.0.0, SVG Export Plug-In . SVG Version: 6.00 Build 0)  -->
<svg version="1.1"
	 id="SVGRoot" inkscape:version="0.92.4 (5da689c313, 2019-01-14)" sodipodi:docname="bg.svg" xmlns:cc="http://creativecommons.org/ns#" xmlns:dc="http://purl.org/dc/elements/1.1/" xmlns:inkscape="http://www.inkscape.org/namespaces/inkscape" xmlns:rdf="http://www.w3.org/1999/02/22-rdf-syntax-ns#" xmlns:sodipodi="http://sodipodi.sourceforge.net/DTD/sodipodi-0.dtd" xmlns:svg="http://www.w3.org/2000/svg"
	 xmlns="http://www.w3.org/2000/svg" xmlns:xlink="http://www.w3.org/1999/xlink" x="0px" y="0px" viewBox="0 0 1859.6 1529.7"
	 style="enable-background:new 0 0 1859.6 1529.7;" xml:space="preserve">
<style type="text/css">
	.st0{opacity:0.662;fill-opacity:0.4724;enable-background:new    ;}
</style>
<defs>
	
	
		<inkscape:perspective  id="perspective2315" inkscape:persp3d-origin="210 : 99 : 1" inkscape:vp_x="0 : 148.5 : 1" inkscape:vp_y="0 : 1000 : 0" inkscape:vp_z="420 : 148.5 : 1" sodipodi:type="inkscape:persp3d">
		</inkscape:perspective>
</defs>
<sodipodi:namedview  bordercolor="#666666" borderopacity="1.0" id="base" inkscape:current-layer="SVGRoot" inkscape:cx="258.7524" inkscape:cy="-310.82897" inkscape:document-units="mm" inkscape:pageopacity="0.0" inkscape:pageshadow="2" inkscape:window-height="971" inkscape:window-maximized="1" inkscape:window-width="1280" inkscape:window-x="-8" inkscape:window-y="-8" inkscape:zoom="0.175" pagecolor="#ffffff" showgrid="false">
	</sodipodi:namedview>
<g id="layer1" inkscape:groupmode="layer" inkscape:label="Camada 1">
</g>
<path id="path2357" class="st0" d="M813.1,1948.6l452.7-223.1l-141-322.7l-200.7,117.8L830,1693L813.1,1948.6z M830,1693l8-121.7
	l-49.6,29.1l-2.4-329.6l-371.1,8.7l21,184.3l273.7,449.4L830,1693z M435.9,1463.7l-111-182.2l90-2.1l-15.5-136.2l-51.6,3.6
	l42.2-86.2l-20.7-181.3L172.7,757l-17.1,3.7l-739.6,547.3l1054.3,458.4L435.9,1463.7z M155.7,760.7l10.6-7.8l-362.8-225.7L514,147.6
	l-17.7,538.5l86-18.9l33.8-69l36.1,53.7l83.2-18.2l129.6-229.2l-760.7-834L-306.1,862L155.7,760.7z M865.1,404.4l53.1,58.3
	l49.3-239.4L865.1,404.4z M967.5,223.3l222.9-394.1l387.5,657.5l141-46.8l50.5-119.8l-694.7-617.5L967.5,223.3z M1769.4,320.1
	l84.4,75l-134.9,44.8l-26,61.7l155.9-49.7L1786.5,737l568.9,219l88.1-11l-602.3-795.2L1769.4,320.1z M2355.4,956l-512.2,64.2
	l125.1,130.8l22.2,10.7l179,10.7l241.4-195.1L2355.4,956z M2169.5,1172.5l-101.9,82.4l49.7,52l87.3-132.3L2169.5,1172.5z
	 M2117.3,1306.9l-3.6,5.5l7.2-1.8L2117.3,1306.9z M2113.6,1312.4l-167.9,41l-118.2,95.5l74.3,51.7l-71.5,33.6l105.1,48.3
	L2113.6,1312.4z M1935.5,1582.5l-78.1,118.4l-72.6-145.2l-122.7,57.7l12.7-150.7l-24-11l-54.5,73.9l32,21.4l-70,34.5l35.2,377.9
	l457.1-324L1935.5,1582.5z M1558.3,1581.4l-0.4-4l-4.8,6.5L1558.3,1581.4z M1553.1,1584l-287.2,141.6l68.1,155.8L1553.1,1584z
	 M1557.9,1577.5l38.3-51.9l-46-30.7L1557.9,1577.5z M1550.2,1494.8l-8.7-93.3l109.2,50.1l23.6-32l-18.1,4.4L1481,1310.9l-167.7-18.8
	l-35.3,20.7L1550.2,1494.8z M1278,1312.8l-44.4-29.7l-169.4-19l60.6,138.6L1278,1312.8z M1064.3,1264.2l-206.4,4.9L838,1571.2
	l86.2-50.6L1064.3,1264.2z M857.9,1269l10.4-158.1l-83.4,5.7l1.1,154L857.9,1269z M784.8,1116.7l-2-270.8l-25-37.2l-122,1.1l56-99.1
	l-39.6-58.9l-69.9,15.3l-91.6,187.2l-3.2,98.4l-34.4-21.4l-63.2,129.1l9.4,82.7L784.8,1116.7z M453.1,931.4l37.7-77l5.5-168.4
	l-145.4,31.9l18.4,161.3L453.1,931.4z M350.9,717.9l-10.7-93.8l-174,128.8l6.5,4.1L350.9,717.9z M691.9,710.8l65.9,98l24.7-0.2
	l-1.4-184.9l-45.7,10L691.9,710.8z M781.2,623.6l62.5-13.7l-62.9-35.7L781.2,623.6z M843.7,609.9l39.6,22.5l6.7-32.7L843.7,609.9z
	 M890.1,599.7l127.7-28l-99.5-109.1L890.1,599.7z M883.3,632.4l-18.8,91.2L977.7,686L883.3,632.4z M977.7,686l49,27.8l255.5-81.4
	l98.1-80.1L977.7,686z M1380.4,552.3l95.2-31.6l-6.6-40.7L1380.4,552.3z M1475.6,520.6l7.7,47.7l120.1-38.3l-25.6-43.4L1475.6,520.6
	z M1603.5,530l45.2,76.6l44.3-105.1L1603.5,530z M1648.6,606.6l-82.1,194.9l111.9-1l-17.6-111.9l46.7,18L1648.6,606.6z
	 M1707.6,706.6l54.9,93.1l-84,0.8l35.8,227.3l7.9,3.8l64.4-294.7L1707.6,706.6z M1722.1,1031.7l-0.8,3.8l7-0.9L1722.1,1031.7z
	 M1728.2,1034.6l36.5,17.7l6.8-23.1L1728.2,1034.6z M1771.5,1029.2l71.7-9l-52.9-55.4L1771.5,1029.2z M1764.8,1052.4l-27.6,94.3
	l240.7,14.4l-9.6-10L1764.8,1052.4z M1977.9,1161.1l49.4,51.7l28.5-19.3l-65.2-31.6L1977.9,1161.1z M2027.3,1212.7l-256.6,173.9
	l1.4,9l173.6-42.4l121.9-98.5L2027.3,1212.7z M1772.1,1395.7l-15.6,3.8l18.2,12.6L1772.1,1395.7z M1774.7,1412.2l11.1,70.4
	l41.7-33.7L1774.7,1412.2z M1756.5,1399.5l-2.4-1.6l-5.1,3.5L1756.5,1399.5z M1749,1401.4l-37,9l6,12L1749,1401.4z M1718,1422.4
	l-32.2,21.8l-1.9-26.9l-5.5,1.3l-3.7,44.1l82.4,37.9L1718,1422.4z M1757.1,1500.5l27.6,55.1l45.7-21.5L1757.1,1500.5z
	 M1678.4,1418.6l0.4-5.2l-4.5,6.2L1678.4,1418.6z M1678.8,1413.4l4.4-5.9l-1.8-24.8L1678.8,1413.4z M1681.4,1382.7l2.4-28.7
	l-4.5-9.1l-0.5,1.6L1681.4,1382.7z M1678.8,1346.6l-0.2-3l-5.6-11.1l-12.2-1.4l-4.6,93L1678.8,1346.6z M1660.8,1331.1l1-20.9
	l-9.8-19.6l-131.7-120l-134.4,78.9l95.1,61.4L1660.8,1331.1z M1385.9,1249.5l-18.4-11.9l144.9-74.3l-392.8-357.8l-336.9,3l0.3,37.4
	L949,1092.8l284.7,190.3l79.7,8.9L1385.9,1249.5z M949,1092.8l-76.2-50.9l-4.5,69.1l88.8-6.1L949,1092.8z M1119.5,805.5l67.7-0.6
	l-160.5-91.1l-5.9,1.9L1119.5,805.5z M1187.3,804.9l304.9,173l74.4-176.4l-45.2,0.4l6,37l-95.5-36.2L1187.3,804.9z M1431.8,802.7
	l89.4-0.8l-37.9-233.6l-201.1,64.1l-95,77.6L1431.8,802.7z M1492.1,977.9l-38.4,91.1l162.9-20.4L1492.1,977.9z M1616.6,1048.6
	l42.4,24.1l-2.1-29.1L1616.6,1048.6z M1656.9,1043.6l58.6-7.3l-1.3-8.4l-60.6-29.4L1656.9,1043.6z M1715.5,1036.2l2.3,14.8l3.4-15.6
	L1715.5,1036.2z M1717.9,1051.1l-20.4,93.2l35.4,2.1L1717.9,1051.1z M1732.9,1146.4l1.5,9.8l2.8-9.6L1732.9,1146.4z M1734.4,1156.3
	l-51.8,177.2l50.9,5.7l-21.6,29.3l42.2,29.4l16.5-11.2L1734.4,1156.3z M1711.9,1368.5l-27.7-19.3l-0.4,4.7l15.7,31.4L1711.9,1368.5z
	 M1699.5,1385.4l-16.3,22.1l0.7,9.8l28.1-6.9L1699.5,1385.4z M1682.6,1333.5l-4.8-0.5l0.8,10.6l0.7,1.4L1682.6,1333.5z M1677.8,1333
	l-5.4-74.1l-9.2,41.9l-0.9-0.9l-0.5,10.2l11.2,22.3L1677.8,1333z M1662.3,1299.9l5.3-107.2l-3.6-50.4l-86.8-5.2l-1.5,0.9l76.3,152.5
	L1662.3,1299.9z M1575.7,1138l-0.5-1l2,0.1l82.9-48.7l-0.1-0.9l-147.8,75.8l8,7.3L1575.7,1138z M1660.1,1087.5l13.2-6.8l-14.2-8.1
	L1660.1,1087.5z M1673.3,1080.8l-13.1,7.7l3.9,53.9l6.1,0.4L1673.3,1080.8z M1670.2,1142.7l-2.5,50.1l4.8,66.1l25-114.5
	L1670.2,1142.7z"/>
<path id="path2357-7" inkscape:connector-curvature="0" class="st0" d="M2020.8,1235.5l-72.1-421.6l-296.2,36.8l47.4,191.5
	l117.3,118.1L2020.8,1235.5z M1817.2,1160.1l-97-35.9l11.7,47.3l-268.4-77.5l-82.4,303.6l154.8,27.4L1967,1311L1817.2,1160.1z
	 M1535.9,1425l-174.8,46.2l20-73.6l-114.4-20.2l-9.6,42.8l-59.9-55.1l-152.3-26.9l-146.7,130.2l-1.1,14.8l266.4,732.9l626.6-746.1
	L1535.9,1425z M897.2,1483.2l-3.8-10.5l-270.8,240.3l-137.2-668.9l433.2,144.2l5.4-74.5l-48-44.1l52.4-16.4l5.2-72l-155-160.6
	l-861,416.9l950.4,645L897.2,1483.2z M778.7,820.9l60.2-29.1L656.2,694L778.7,820.9z M656.2,694L389.8,417.9l627.7-156.3l-4-125.9
	l-85.1-69.9L259,481.4L656.2,694z M928.2,65.8l81.3-50.5l3.9,120.4l43.9,36l-2.8-138.6l216.7,119.4L1586.2-257l12.3-74.3L807.2-33.5
	L928.2,65.8z M1586.2-257l-71.3,431.6l136.5-70.1l14.1-15.4l51.8-142.9L1617-296.9L1586.2-257z M1717.3-53.7L1759.6,49l54.2-27.9
	l-86.4-102.8L1717.3-53.7z M1813.9,21.1l3.6,4.3l0.3-6.3L1813.9,21.1z M1817.5,25.4l-7.2,146.3l49.1,119.1l59.9-47.9l10.1,66.2
	l64.6-73.8L1817.5,25.4z M1993.9,235.3l77.3,92l-135.5,24l17.3,113.6l-119.4-46.6l-14.8,16.9l46.9,62.1l25.1-20.9l11.1,65.1
	l315.5,62.5l-153-449.5L1993.9,235.3z M1902.1,541.5l-3.3-0.7l4.1,5.5L1902.1,541.5z M1903,546.3l45.8,267.5l143-17.7L1903,546.3z
	 M1898.8,540.9l-33-43.6l-36.1,30L1898.8,540.9z M1829.8,527.2l-77.9-15.4l67.1-76.6l-20.3-26.9l-0.8,15.8l-134.1,115.1L1608,670.8
	l8.3,33.7L1829.8,527.2z M1616.3,704.4l-34.8,28.9l-56.3,133.1l127.2-15.8L1616.3,704.4z M1525.3,866.4l-45.8,168.9l240.7,89
	l-20.3-82.2L1525.3,866.4z M1479.5,1035.3l-125.9-46.6l-15.5,69.2l125.4,36.2L1479.5,1035.3z M1338.1,1057.9l-220.5-63.7l-36.2,11.4
	l-28.5,99.4l-67-69.4l-57.4,18l-4.4,60.5l130,119.6l79.2,26.4l-25.7,22.8l89.7,82.5l69.4,12.3L1338.1,1057.9z M1107.6,1282.7
	l-53.5-49.1l-135.5-45.1l-9.2,125.8l135.5,24L1107.6,1282.7z M909.5,1314.3l-78.8-13.9l62.7,172.4l4.9-4.3L909.5,1314.3z
	 M985.9,1035.5l95.5-29.9l5.8-20.2l-150.6-43.5l-2.9,39.6L985.9,1035.5z M936.6,941.9l3.9-54.1l-44.1,42.5L936.6,941.9z
	 M940.5,887.8l27.8-26.8l-24.9-13.3L940.5,887.8z M943.4,847.7l8-110.5l-112.6,54.5L943.4,847.7z M968.3,861.1l69.5,37.2l-3.2-101
	L968.3,861.1z M1034.6,797.3l34.4-33.1l-4.5-227.2l-41.4-99L1034.6,797.3z M1023.1,437.9l-2.7-85l-34.7-4.4L1023.1,437.9z
	 M1020.3,352.9l40.6,5.2l-2.1-106.8l-41.4,10.3L1020.3,352.9z M1058.8,251.3l73.1-18.2l-74.7-61.3L1058.8,251.3z M1131.9,233.1
	l138.5,113.7l26.2-91.2l-95.1-12.7l25.9-33.6L1131.9,233.1z M1227.4,209.3l88.9-22.1l-19.6,68.4l193.3,25.7l5-5.5l-223.9-123.4
	L1227.4,209.3z M1495,275.8l2.9,1.6l1-5.9L1495,275.8z M1498.9,271.6l23.2-25.4l-17.2-11.1L1498.9,271.6z M1504.9,235.1l10-60.4
	l-57.7,29.6L1504.9,235.1z M1522.1,246.2l70,45.1l69.7-192.1l-10.4,5.4L1522.1,246.2z M1661.8,99.2l53.9-27.7l-8.8-27.8l-41.4,45.4
	L1661.8,99.2z M1715.7,71.5l79.5,250.4l7.7,1l7.4-151.3L1759.6,49L1715.7,71.5z M1802.8,323l-0.7,13.6l14.7-11.7L1802.8,323z
	 M1816.8,324.9l59.9,8l-17.3-42L1816.8,324.9z M1802.2,336.6l-1.9,1.5l1.6,5L1802.2,336.6z M1801.8,343.1l-1.6,32.3l11.2-2
	L1801.8,343.1z M1811.4,373.4l10,31.4l-22.4-4.9l-0.2,4.8l34.9,13.6l50.6-57.9L1811.4,373.4z M1884.4,360.4l51.4-9.1l-6.4-42.3
	L1884.4,360.4z M1798.8,404.7l-4.1-1.6l3.9,5.2L1798.8,404.7z M1794.7,403.1l-3.8-5l-20.6-4.5L1794.7,403.1z M1770.3,393.6
	l-22.7-8.9l-8.4,1.5l1.2,0.8L1770.3,393.6z M1740.4,387l-2.5-0.6l-10.4,1.8l-4,9.6l74.4,26.2L1740.4,387z M1723.4,397.8l-16.7-5.9
	l-18.3,3.2l-129.3,78.1l31.7,128.2l72.8-62.5L1723.4,397.8z M1590.9,601.5l-14.1,12.1L1551.3,478l-385.4,232.9l-78.8,274.5l30.5,8.8
	l240.7-75.5l223.3-185.4l26.5-62.6L1590.9,601.5z M1358.3,918.7l-59.7,49.6l55,20.3l16.4-73.6L1358.3,918.7z M1165.9,710.9
	l15.8-55.2L1069,764.2l0.1,5.2L1165.9,710.9z M1181.8,655.7l214.1-206l-125.4-103l-10.6,36.8l31.5,4l-52.4,68.8L1181.8,655.7z
	 M1239,456.5l20.9-72.9l-198.9-25.5l3.6,178.8l40.1,95.9L1239,456.5z M1395.9,449.8l64.8,53.2l22.7-137.3L1395.9,449.8z
	 M1483.3,365.6l29.8-28.6l-24.1-5.3L1483.3,365.6z M1488.9,331.7l8.2-49.4l-7.1-1l-38.5,42.1L1488.9,331.7z M1497.1,282.3l12.6,1.7
	l-11.8-6.5L1497.1,282.3z M1509.7,284l70.8,39l10.2-28.2L1509.7,284z M1590.8,294.8l8.4,1.1l-7.1-4.6L1590.8,294.8z M1599.2,295.9
	l131.5,84.8l16.9-40l18.6,24.6l34-27.2l-5.1-16.1L1599.2,295.9z M1766.2,365.3l-22.3,17.9l3.8,1.5l29.3-5.2L1766.2,365.3z
	 M1776.9,379.5l14,18.6l8.1,1.8l1.2-24.5L1776.9,379.5z M1730.7,380.7l-1.6,3.8l8.8,1.9l1.3-0.2L1730.7,380.7z M1729.1,384.5
	l-61.5-13.5l31.9,17.6l-0.9,0.6l8.2,2.9l20.8-3.7L1729.1,384.5z M1698.5,389.1l-85.8-30.2l-41.9-9.2l-25.1,69.3l0.4,1.4l142.3-25.2
	L1698.5,389.1z M1546.1,420.4l-0.9,0.2l0.6-1.6l-19.6-79.1l-0.8-0.2l25.9,138.3l7.8-4.7L1546.1,420.4z M1525.4,339.7l-2.3-12.3
	l-10,9.6L1525.4,339.7z M1523.1,327.4l3.1,12.5l44.7,9.8l1.8-4.9L1523.1,327.4z M1572.7,344.8l40.1,14.1l54.8,12.1l-87-48
	L1572.7,344.8z"/>
<path id="path2357-6" inkscape:connector-curvature="0" class="st0" d="M1249.2,542.8L870.3,344.3L719.8,602.1l180.9,78.5l165-21.6
	L1249.2,542.8z M1065.8,659l-87.3,55.3l44.7,19.4L798.7,900.1L990,1149.7l115.7-106.4l170.9-411.9L1065.8,659z M1105.7,1043.3
	l-69.3,167l-46.4-60.5l-85.5,78.7l28.2,33.6l-80.1,14.2l-113.8,104.7l14.5,195.6l11.1,9.8l744.2,232.9l-212.9-950.8L1105.7,1043.3z
	 M764.4,1586.4l-10.6-3.3l26.7,361.1l-614.9-296.8l377.5-256.9l-55.9-49.5l-64.1,11.4l18.7-51.6l-54.1-47.9l-221.7,25.8l-191,937.4
	l1089.4-364.2L764.4,1586.4z M166.1,1278.7l13.3-65.5l-188.5,85.9L166.1,1278.7z M-9.1,1299.1l-381.2,44.3l256.5-593.8l-102.5-73.2
	l-107.2,25.3l-75.6,784.1L-9.1,1299.1z M-343.5,701.7l9.2-95.2l98,70l55.2-13l-111.9-81.9l226.4-99.8L-200.8-17.2L-252.4-72
	l-243.5,809.6L-343.5,701.7z M-200.8-17.2L99,301.4l27.1-151l-3.7-20.5L40.2,2l-254.2-67.8L-200.8-17.2z M40.2,2l107.3,28.6l10.8-60
	L24.2-23.1L40.2,2z M158.3-29.4l5.6-0.3l-4.8-4.1L158.3-29.4z M163.9-29.7l111.9,94.5L400.3,98l-1.8-76.7l58.7,32.1l-19.5-96.1
	L163.9-29.7z M437.8-42.6l120.1-5.7L494.8,74l100.8,55.2l-109.5,66.6l4.4,22l77.8,0.4l-1.3-32.6l58.5,30.7L866.7,3.2L416.5-147.9
	L437.8-42.6z M625.6,216.1l-2.5,2.2l6.9,0L625.6,216.1z M629.9,218.4l240.4,125.9l72.6-124.4L629.9,218.4z M623,218.4l-54.7-0.3
	l1.9,46.8L623,218.4z M570.3,264.9l-59.5,52.6l-20.2-99.8l-33.7-0.2l12.1,10.2L479,404.2l70.9,124.2l31.8,13.8L570.3,264.9z
	 M581.7,542.2l1.9,45.2l71.6,125.5l64.6-110.7L581.7,542.2z M655.2,712.8l106.4,138.9l216.8-137.3l-77.7-33.7L655.2,712.8z
	 M761.6,851.7l-113.4,71.8l45.6,54.3l104.9-77.7L761.6,851.7z M693.8,977.8l-184.4,136.6l-13,35.7l61.7,83l-95.8,11.1l-20.5,56.5
	l45.4,40.2l173.9-30.8l69-46.9l2.5,34.3l120-21.3l51.9-47.8L693.8,977.8z M732.7,1297.4l-71.5,12.7l-118,80.3l94.5,83.6l101.3-93.2
	L732.7,1297.4z M637.6,1474.1l-58.9,54.2l175.1,54.8l-0.5-6.5L637.6,1474.1z M462.3,1244.2l34.1-94.1l-12.5-16.8L358,1226.6
	l29.7,26.3L462.3,1244.2z M358,1226.6l-40.6-35.9l7,60.9L358,1226.6z M317.4,1190.7l-4.4-38.4l-25.7,11.7L317.4,1190.7z M287.3,1164
	l-83-73.4l-25,122.6L287.3,1164z M313,1152.3l71.8-32.7l-82.3-58.7L313,1152.3z M302.6,1060.9l-5.4-47.4L113.7,879.2L9.9,852.1
	L302.6,1060.9z M9.9,852.1l-69.2-49.4l-24.6,24.9L9.9,852.1z M-59.3,802.7l28.8-29.1l-86.2-63.1l-16.9,39.2L-59.3,802.7z
	 M-116.8,710.4l29.9-69.2l-94.1,22.2L-116.8,710.4z M-86.9,641.3l174.4-41.1L30.9,524l-67.8,67.9l-11-41L-86.9,641.3z M-47.9,551
	l36.3-84.1L30.9,524l137.8-138.1l-1.3-7.3L-66.6,481.7L-47.9,551z M167.3,378.6l3.1-1.3l-4.1-4.3L167.3,378.6z M166.3,372.9
	l-6.1-33.9L141,346L166.3,372.9z M141,346l-42-44.6l-11.5,63.9L141,346z M160.2,339.1l78.4-28.3l-110.4-172l-2.1,11.5L160.2,339.1z
	 M128.1,138.9l10.7-59.6l-27.4-9.8l10.9,60.5L128.1,138.9z M138.8,79.2L386.1,168l5.5-5.5L275.9,64.8L147.6,30.6L138.8,79.2z
	 M391.6,162.5l10.4,8.8l-0.4-18.8L391.6,162.5z M401.6,152.5l42.7-42.8L400.3,98L401.6,152.5z M402,171.3l0.1,2.4l4.9,1.8L402,171.3
	z M407,175.5l24.7,20.8l5.2-10.1L407,175.5z M436.9,186.2l31,11.1l-17.5,14.8l3.7,3.1l32-19.5l-15.3-75.4L436.9,186.2z M470.8,120.4
	l24-46.4l-37.5-20.5L470.8,120.4z M454.1,215.3l-3.7,2.3l6.5,0L454.1,215.3z M450.3,217.5l-6.3,0L428,231.1L450.3,217.5z M428,231.1
	l-20.8,12.7l-3.9,7.6l1.4-0.5L428,231.1z M404.6,250.9l-2,1.7l-4.8,9.4l5.2,9l66-43.3L404.6,250.9z M402.9,271l-14.8,9.7l-8.5,16.5
	l-16.3,150.1L484.4,500l-5.5-95.8L402.9,271z M484.4,500l1.1,18.6l-123.2-62.1l-48.7,447.7L484,1133.3l25.5-18.9l86-237.1l-11.9-290
	l-33.7-59L484.4,500z M595.5,877.3l3.2,77.6l49.6-31.4l-48.5-57.7L595.5,877.3z M313.6,904.1l-34.3-46.1l17.8,155.4l4.2,3.1
	L313.6,904.1z M279.3,858.1l-33.8-295.1L87.5,600.1l22.9,30.8l22.3-22.6l22.9,83.4L279.3,858.1z M155.6,691.7l-45.2-60.8l-141,142.7
	l144.3,105.7l100.6,26.3L155.6,691.7z M245.5,562.9l81.6-19.2l-95.4-101.3L245.5,562.9z M231.6,442.3l-4.7-41l-18.9,16L231.6,442.3z
	 M208.1,417.3l-34.3-36.5l-5.1,5.1l10.1,56.1L208.1,417.3z M173.8,380.8l9-9l-12.4,5.4L173.8,380.8z M182.8,371.8l74-32.6
	l-16.2-25.3L182.8,371.8z M240.5,313.9l6-6l-7.9,2.9L240.5,313.9z M246.5,307.9l147.2-53.1l-21.5-37.7l30.9,0.1l-1-43.6l-15.9-5.7
	L246.5,307.9z M403.1,217.3l0.7,28.6l3.4-2.1l13.6-26.4L403.1,217.3z M420.8,217.4l23.3,0.1l6.3-5.4l-18.7-15.8L420.8,217.4z
	 M393.7,254.9l2,3.6l6.9-5.8l0.6-1.2L393.7,254.9z M395.7,258.4l-48.1,40.7l33.3-14.7l-0.1,1.1l7.2-4.7l9.7-18.8L395.7,258.4z
	 M380.9,285.5l-76,49.9l-32.7,27.7l39.8,62l1.4,0.6l66.3-128.5L380.9,285.5z M313.3,425.7l-0.4,0.8l-0.9-1.4l-74.8-32.4l-0.6,0.5
	l125.7,63.3l1-9.1L313.3,425.7z M236.6,393.2l-11.2-5.6l1.6,13.8L236.6,393.2z M225.4,387.5l11.8,5.1l34.9-29.6l-2.8-4.4
	L225.4,387.5z M269.3,358.7l35.5-23.3l42.9-36.3l-90.9,40.1L269.3,358.7z"/>
</svg>
