<?xml version="1.0" encoding="utf-8"?>
<!-- Generator: Adobe Illustrator 21.0.0, SVG Export Plug-In . SVG Version: 6.00 Build 0)  -->
<svg version="1.1"
	 id="SVGRoot" inkscape:version="0.92.4 (5da689c313, 2019-01-14)" sodipodi:docname="bg.svg" xmlns:cc="http://creativecommons.org/ns#" xmlns:dc="http://purl.org/dc/elements/1.1/" xmlns:inkscape="http://www.inkscape.org/namespaces/inkscape" xmlns:rdf="http://www.w3.org/1999/02/22-rdf-syntax-ns#" xmlns:sodipodi="http://sodipodi.sourceforge.net/DTD/sodipodi-0.dtd" xmlns:svg="http://www.w3.org/2000/svg"
	 xmlns="http://www.w3.org/2000/svg" xmlns:xlink="http://www.w3.org/1999/xlink" x="0px" y="0px" viewBox="0 0 1859.6 1529.7"
	 style="enable-background:new 0 0 1859.6 1529.7;" xml:space="preserve">
<style type="text/css">
	.st0{opacity:0.26;}
</style>
<defs>
	
	
		<inkscape:perspective  id="perspective2315" inkscape:persp3d-origin="210 : 99 : 1" inkscape:vp_x="0 : 148.5 : 1" inkscape:vp_y="0 : 1000 : 0" inkscape:vp_z="420 : 148.5 : 1" sodipodi:type="inkscape:persp3d">
		</inkscape:perspective>
</defs>
<sodipodi:namedview  bordercolor="#666666" borderopacity="1.0" id="base" inkscape:current-layer="SVGRoot" inkscape:cx="258.7524" inkscape:cy="-310.82897" inkscape:document-units="mm" inkscape:pageopacity="0.0" inkscape:pageshadow="2" inkscape:window-height="971" inkscape:window-maximized="1" inkscape:window-width="1280" inkscape:window-x="-8" inkscape:window-y="-8" inkscape:zoom="0.175" pagecolor="#ffffff" showgrid="false">
	</sodipodi:namedview>
<g id="layer1" inkscape:groupmode="layer" inkscape:label="Camada 1">
</g>
<g class="st0">
	<polygon points="723.5,913.4 723.5,1041.1 811.5,1041.1 811.5,637.4 963.5,637.4 963.5,357.4 503.5,357.4 503.5,913.4 	"/>
	<polygon points="503.5,1129.4 191.5,1129.4 191.5,357.4 503.5,357.4 503.5,61.4 -348.5,61.4 -348.5,913.4 55.5,913.4 55.5,1581.4 
		723.5,1581.4 723.5,1453.4 503.5,1453.4 	"/>
	<polygon points="1283.5,877.4 1283.5,637.4 963.5,637.4 963.5,1129.4 915.8,1129.4 915.8,1325.4 1251.5,1325.4 1251.5,1149.4 
		1499.5,1149.4 1499.5,877.4 	"/>
	<polygon points="811.5,1129.4 723.5,1129.4 723.5,1453.4 915.8,1453.4 915.8,1325.4 811.5,1325.4 	"/>
	<rect x="503.5" y="1041.1" width="220" height="88.3"/>
	<rect x="811.5" y="1041.1" width="104.3" height="88.3"/>
	<polygon points="1251.5,1325.4 1251.5,1693.4 1795.5,1693.4 1795.5,1149.4 1499.5,1149.4 1499.5,1325.4 	"/>
	<polygon points="1499.5,877.4 2099.5,877.4 2099.5,61.4 1283.5,61.4 1283.5,637.4 1499.5,637.4 	"/>
</g>
<g class="st0">
	<polygon points="-112.4,17.4 -112.4,-238.6 -552.4,-238.6 -552.4,201.4 -248.4,201.4 -248.4,17.4 	"/>
	<polygon points="-0.4,585.4 319.6,585.4 319.6,17.4 -112.4,17.4 -112.4,201.4 -248.4,201.4 -248.4,417.4 -0.4,417.4 	"/>
	<polygon points="-0.4,705.4 -0.4,585.4 -248.4,585.4 -248.4,417.4 -800.4,417.4 -800.4,1217.4 -144.4,1217.4 -144.4,705.4 	"/>
	<polygon points="543.6,705.4 -0.4,705.4 -0.4,1217.4 -144.4,1217.4 -144.4,1793.4 943.6,1793.4 943.6,1117.6 543.6,1117.6 	"/>
	<polygon points="1447.6,241.4 1447.6,-182.1 1039.6,-182.1 1039.6,17.4 655.6,17.4 655.6,357.6 1303.6,357.6 1303.6,489.4 
		1735.1,489.4 1735.1,241.4 	"/>
	<polygon points="1303.6,897.4 1303.6,1117.6 1159.6,1117.6 1159.6,1465.4 2135.6,1465.4 2135.6,489.4 1735.1,489.4 1735.1,897.4 	
		"/>
	<rect x="943.6" y="897.4" width="216" height="220.3"/>
	<rect x="543.6" y="357.6" width="112" height="347.7"/>
	<rect x="655.6" y="705.4" width="288" height="192"/>
	<rect x="1159.6" y="489.4" width="144" height="408"/>
	<polygon points="1039.6,-182.1 1039.6,-478.6 543.6,-478.6 543.6,17.4 655.6,17.4 655.6,-182.1 	"/>
	<polygon points="1735.1,241.4 2207.6,241.4 2207.6,-518.6 1447.6,-518.6 1447.6,-182.1 1735.1,-182.1 	"/>
</g>
</svg>
