<?xml version="1.0" encoding="utf-8"?>
<!-- Generator: Adobe Illustrator 21.0.0, SVG Export Plug-In . SVG Version: 6.00 Build 0)  -->
<svg version="1.1" id="Layer_1" xmlns="http://www.w3.org/2000/svg" xmlns:xlink="http://www.w3.org/1999/xlink" x="0px" y="0px"
	 viewBox="0 0 1003.4 1264.6" style="enable-background:new 0 0 1003.4 1264.6;" xml:space="preserve">
<style type="text/css">
	.st0{fill:none;stroke:#000000;stroke-miterlimit:10;}
	.st1{fill:#F2F2F2;}
	.st2{fill:#091635;}
	.st3{fill:#132344;}
	.st4{fill:#252433;}
	.st5{fill:#424242;}
	.st6{fill:#FF9244;}
	.st7{fill:#FF915B;}
	.st8{fill:#BCBCBC;}
	.st9{fill:#CCCCCC;}
	.st10{opacity:0.2;}
	.st11{fill:#D8D8D8;}
	.st12{fill:#3D3D3D;}
	.st13{fill:#00021B;}
	.st14{fill:#F4F4F4;}
	.st15{fill:#AECDFF;}
	.st16{fill:#9A4993;}
	.st17{fill:#6A1577;}
	.st18{fill:#813084;}
	.st19{fill:#FFFFFF;}
	.st20{fill:#FF3312;}
	.st21{fill:#FF7979;}
	.st22{fill:#0663FF;}
	.st23{fill:#69BEFF;}
	.st24{fill:#E9D44D;}
</style>
<line class="st0" x1="18.6" y1="677.5" x2="189" y2="677.5"/>
<line class="st0" x1="134.3" y1="677.5" x2="134.3" y2="699.1"/>
<line class="st0" x1="68" y1="677.5" x2="68" y2="699.1"/>
<line class="st0" x1="44.8" y1="699.1" x2="160.5" y2="699.1"/>
<line class="st0" x1="97.3" y1="699.1" x2="97.3" y2="720.7"/>
<line class="st0" x1="72.6" y1="720.7" x2="118.1" y2="720.7"/>
<line class="st0" x1="97.3" y1="655.9" x2="97.3" y2="677.5"/>
<line class="st0" x1="162" y1="655.9" x2="162" y2="677.5"/>
<rect x="471.5" y="1145.8" class="st1" width="49.4" height="67.5"/>
<g>
	<g>
		<rect x="204.8" y="66.7" class="st2" width="284.9" height="424"/>
		<rect x="504.8" y="67.7" class="st2" width="284.9" height="424"/>
		<rect x="204.8" y="504.2" class="st2" width="284.9" height="424"/>
		<rect x="504.8" y="505.2" class="st2" width="284.9" height="424"/>
	</g>
	<g>
		<polygon class="st3" points="489.7,66.7 322.1,66.7 489.7,244.3 		"/>
		<polygon class="st3" points="789.7,491.7 789.7,67.7 504.8,67.7 504.8,260.3 723.2,491.7 		"/>
		<polygon class="st3" points="789.7,916.7 776.5,929.2 789.7,929.2 		"/>
		<polygon class="st3" points="789.7,505.2 736,505.2 789.7,562.1 		"/>
	</g>
</g>
<path class="st1" d="M591.8,1232.2H400.7c-5.2,0-9.4-4.3-9.4-9.4l0,0c0-5.2,4.3-9.4,9.4-9.4h191.1c5.2,0,9.4,4.3,9.4,9.4l0,0
	C601.2,1228,597,1232.2,591.8,1232.2z"/>
<g>
	<path class="st4" d="M862.1,1145.1H132.4c-14.2,0-25.8-11.6-25.8-25.8v-414c0-14.2,11.6-25.8,25.8-25.8h729.7
		c14.2,0,25.8,11.6,25.8,25.8v414C887.9,1133.6,876.3,1145.1,862.1,1145.1z"/>
	<rect x="123.5" y="696.2" class="st1" width="745.5" height="408"/>
	<rect x="123.5" y="696.2" class="st5" width="745.5" height="73.5"/>
	<rect x="158" y="798.2" class="st6" width="88.5" height="19.5"/>
	<rect x="259.5" y="798.2" class="st4" width="50.4" height="19.5"/>
	<rect x="320.9" y="798.2" class="st6" width="129.1" height="19.5"/>
	<rect x="215.5" y="846.2" class="st6" width="88.5" height="19.5"/>
	<rect x="317" y="846.2" class="st4" width="88.5" height="19.5"/>
	<rect x="419" y="846.2" class="st4" width="141.9" height="19.5"/>
	<rect x="215.5" y="894.2" class="st6" width="47.9" height="19.5"/>
	<rect x="277" y="894.2" class="st4" width="88.5" height="19.5"/>
	<rect x="379" y="894.2" class="st4" width="62.9" height="19.5"/>
	<rect x="304" y="934.8" class="st4" width="88.5" height="19.5"/>
	<rect x="405.5" y="934.8" class="st4" width="88.5" height="19.5"/>
	<rect x="507.5" y="934.8" class="st6" width="88.5" height="19.5"/>
	<rect x="330" y="975.3" class="st6" width="88.5" height="19.5"/>
	<rect x="431.5" y="975.3" class="st4" width="180.9" height="19.5"/>
	<rect x="303.7" y="1015.9" class="st4" width="88.5" height="19.5"/>
	<rect x="215.2" y="1056.4" class="st4" width="106" height="19.5"/>
	<rect x="335.4" y="1056.4" class="st6" width="172.1" height="19.5"/>
	<rect x="523.9" y="1056.4" class="st4" width="88.5" height="19.5"/>
	<circle class="st7" cx="177.6" cy="733" r="19.6"/>
	<circle class="st7" cx="244.9" cy="733" r="19.6"/>
	<circle class="st7" cx="312.3" cy="733" r="19.6"/>
	<path class="st1" d="M106.6,1117.3v2.7c0,14.2,11.6,25.8,25.8,25.8h729.7c14.2,0,25.8-11.6,25.8-25.8v-2.7H106.6z"/>
</g>
<g>
	<path class="st8" d="M137.7,1258.2h-104c-6.6,0-12-5.4-12-12v-155.1c0.1-1.5,0.7-5.2,3.5-8.5c1.6-1.9,3.3-2.9,4.5-3.5
		c37.7,0.2,75.4,0.3,113.1,0.5c1,0.7,2.2,1.7,3.3,3.1c2.6,3.2,3.3,6.7,3.5,8.5v155.1C149.7,1252.8,144.3,1258.2,137.7,1258.2z"/>
	<path class="st9" d="M170.3,1062.1"/>
	<path class="st9" d="M144.7,1127.6c-13.8,0-26.2,5.5-34.7,14.1c7.2-4.7,16.2-7.5,26.1-7.5c23.1,0,41.8,15.3,41.8,34.2
		c0,18.9-18.7,34.2-41.8,34.2c-10.4,0-19.9-3.1-27.2-8.3c8.4,9.4,21.3,15.4,35.8,15.4c25.4,0,45.9-18.4,45.9-41.1
		S170.1,1127.6,144.7,1127.6z"/>
	<g class="st10">
		<path class="st11" d="M84.5,1004.2c-10.6,9.5-22.6,20.2-29.1,38c-11.2,31,22.9,64.8,24.4,66.2c0.3,0.3,0.7,0.5,1.1,0.5
			c0.4,0,0.9-0.2,1.2-0.6c0.7-0.7,0.9-1.9,0.5-2.9c-0.1-0.3-12.4-30.5-11.9-52.1c0.2-7.5,8.5-16.1,17.3-25.1
			c8.1-8.3,17.2-17.7,22.5-28.7c11.7-24.2-1.3-48-1.4-48.2c-0.5-0.9-1.5-1.3-2.3-0.8c-0.8,0.5-1.3,1.6-1.1,2.7
			c0,0.2,2.6,15.9-4.5,32.1C98.3,991.9,91.9,997.6,84.5,1004.2z"/>
		<path class="st11" d="M129.2,1014.8c0.7-0.7,1-2,0.5-3.1c-0.5-1-1.4-1.5-2.3-1.1c-1.8,0.9-44.1,21.6-44.1,46.6
			c0,17.2,5.8,26.4,10,33c1.7,2.6,3.1,4.9,3.6,6.8c1.3,5.5-1.8,15.6-3.2,19c-0.4,1-0.2,2.2,0.5,2.9c0.4,0.4,0.8,0.6,1.2,0.6
			c0.4,0,0.7-0.1,1.1-0.4c0.7-0.6,17.8-15.9,14.7-34.4c-1.1-7-3.9-12.1-6.3-16.6c-3.7-7-6.4-12.1-2.3-21.4
			C107.4,1035.7,129,1015,129.2,1014.8z"/>
	</g>
	<path class="st9" d="M137.7,1258.1h-104c-6.6,0-12-5.4-12-12V1091c0-0.9,0.1-1.9,0.3-2.7c0.6-2.6,2-4.3,3.2-5.7
		c1.6-1.9,2.3-2.8,3.5-3.2c2.9-1,6.3,1.5,7,2c3.8,2.7,12.2,3.7,49.3,4.3c30.9,0.6,47.2,0.3,52.3-3.7c0.6-0.5,3.8-3.1,6.3-2.2
		c0.7,0.3,1.3,1.1,2.6,2.7c1.6,2.1,2.7,3.5,3.2,5.7c0.2,0.9,0.3,1.8,0.3,2.7v155.1C149.7,1252.7,144.3,1258.1,137.7,1258.1z"/>
	<g>
		<g>
			<path class="st12" d="M82.8,1138.2c-4.5,3.2-9.6,6.7-12.3,12.6c-4.7,10.3,9.7,21.6,10.3,22c0.1,0.1,0.3,0.2,0.5,0.2
				c0.2,0,0.4-0.1,0.5-0.2c0.3-0.2,0.4-0.6,0.2-1c-0.1-0.1-5.2-10.1-5-17.3c0.1-2.5,3.6-5.4,7.3-8.4c3.4-2.8,7.3-5.9,9.5-9.5
				c5-8.1-0.6-16-0.6-16c-0.2-0.3-0.6-0.4-1-0.3c-0.3,0.2-0.5,0.5-0.5,0.9c0,0.1,1.1,5.3-1.9,10.7
				C88.6,1134.1,85.9,1136,82.8,1138.2z"/>
			<path class="st12" d="M101.6,1141.7c0.3-0.2,0.4-0.7,0.2-1c-0.2-0.3-0.6-0.5-1-0.4c-0.8,0.3-18.6,7.2-18.6,15.5
				c0,5.7,2.5,8.8,4.2,11c0.7,0.9,1.3,1.6,1.5,2.3c0.6,1.8-0.8,5.2-1.3,6.3c-0.2,0.3-0.1,0.7,0.2,1c0.1,0.1,0.3,0.2,0.5,0.2
				c0.2,0,0.3,0,0.5-0.1c0.3-0.2,7.5-5.3,6.2-11.4c-0.5-2.3-1.6-4-2.6-5.5c-1.6-2.3-2.7-4-1-7.1
				C92.4,1148.7,101.5,1141.8,101.6,1141.7z"/>
		</g>
		<g>
			<path class="st12" d="M55.1,1176.7c-0.3,0.9-0.2,1.8,0.4,2.6c1.9,2.7,8.8,4.2,19.3,4.2c0,0,0,0,0,0c1.4,0,2.9,0,4.5-0.1
				c16.8-0.6,23.1-5.8,23.3-6.1c0.3-0.2,0.4-0.6,0.2-1c-0.2-0.3-0.6-0.5-0.9-0.4c-5.9,1.6-17,2.2-24.7,2.2c-8.6,0-13-0.6-14-1.1
				c0.5-0.8,3.9-2.1,8.1-2.9c0.4-0.1,0.7-0.4,0.6-0.9s-0.4-0.7-0.8-0.7C68.7,1172.6,56.4,1172.8,55.1,1176.7z"/>
			<path class="st12" d="M111.4,1171.3c-3.5,0-6.8,1.7-6.9,1.8c-0.3,0.2-0.5,0.5-0.4,0.9c0.1,0.4,0.4,0.6,0.8,0.6
				c0.1,0,7.4,0.1,8.1,4.2c0.6,3.6-6.9,9.5-9.9,11.4c-0.3,0.2-0.4,0.6-0.3,1c0.1,0.3,0.4,0.5,0.7,0.5c0.1,0,0.1,0,0.2,0
				c0.7-0.1,17.1-3.8,15.4-13.3C118,1172.5,114.3,1171.3,111.4,1171.3z"/>
			<path class="st12" d="M100.2,1189.1c0.1-0.3-0.1-0.6-0.3-0.8l-3.9-2.8c-0.2-0.1-0.4-0.2-0.7-0.1c0,0-4.2,1.1-10.1,1.8
				c-2.4,0.3-5,0.4-7.7,0.4c-6,0-9.9-0.7-10.5-1.2c-0.1-0.1-0.1-0.2,0-0.2c0.1-0.3,0.7-0.6,1-0.8c0.4-0.1,0.6-0.6,0.5-1
				c-0.1-0.4-0.5-0.6-0.9-0.5c-3.9,1-5.9,2.3-5.7,4c0.2,3,7.1,4.5,12.9,4.9c0.8,0.1,1.7,0.1,2.7,0.1c0,0,0,0,0,0
				c9.7,0,22.1-3,22.2-3.1C99.9,1189.6,100.1,1189.4,100.2,1189.1z"/>
			<path class="st12" d="M70.5,1195.5c0.3-0.2,0.4-0.6,0.3-0.9c-0.1-0.3-0.4-0.6-0.8-0.6c-0.5,0-5.2,0.2-5.5,3.2
				c-0.1,0.9,0.2,1.7,0.8,2.4c1.7,2,6.2,3.2,13.8,3.6c0.9,0.1,1.8,0.1,2.7,0.1c9.7,0,16.2-3,16.4-3.2c0.3-0.1,0.4-0.4,0.5-0.7
				c0-0.3-0.1-0.6-0.4-0.7l-5-3c-0.2-0.1-0.4-0.1-0.6-0.1c0,0-3.2,0.7-8,1.3c-0.9,0.1-2,0.2-3.4,0.2c-4.8,0-10.1-0.8-11.1-1.3
				C70.3,1195.7,70.3,1195.6,70.5,1195.5z"/>
			<path class="st12" d="M77.3,1212.4c22.1,0,34-4,36.3-6.4c0.8-0.9,0.9-1.7,0.8-2.2c-0.2-1.3-1.4-2.1-1.5-2.2
				c-0.3-0.2-0.8-0.2-1,0.1c-0.3,0.3-0.3,0.7,0,1c0.1,0.2,0.2,0.5-0.2,0.9c-0.9,0.9-10.1,3.4-25.5,4.2c-2.1,0.1-4.3,0.2-6.6,0.2
				c-13.8,0-23.8-1.9-25.1-3c0.5-0.7,4.1-1.9,7.9-2.6c0.4-0.1,0.7-0.5,0.6-0.9c-0.1-0.4-0.5-0.7-0.9-0.7c-0.1,0-0.5,0-0.9,0.1
				c-6.2,0.4-13.5,1.2-13.8,4.5c-0.1,1,0.2,1.9,0.9,2.6C49.9,1209.9,54.7,1212.4,77.3,1212.4C77.3,1212.4,77.3,1212.4,77.3,1212.4z"
				/>
			<path class="st12" d="M117.9,1206.7c-0.3-0.1-0.7-0.1-0.9,0.2c0,0-3.4,3.5-13.4,5.6c-3.8,0.8-11,1.2-21.4,1.2
				c-10.4,0-20.2-0.4-20.3-0.4c-0.4,0-0.8,0.3-0.8,0.7c-0.1,0.4,0.2,0.8,0.6,0.9c0.1,0,10.4,2.4,24.6,2.4c6.8,0,13.4-0.6,19.6-1.6
				c11.6-2,12.4-7.8,12.5-8C118.4,1207.1,118.2,1206.8,117.9,1206.7z"/>
		</g>
	</g>
</g>
<g>
	<g>
		<polygon class="st13" points="821.7,1131.7 854.5,1156.4 854.3,1158.5 817.1,1153.7 		"/>
		<path class="st14" d="M820.8,1132.8l32,23.6c-1.1,5.5-2.4,13.2-3.2,22.7c-0.9,10.4-0.9,19-0.7,24.9c-11.7,4.2-23.4,8.5-35.1,12.7
			L820.8,1132.8z"/>
		<path class="st13" d="M821.8,1186.7H479.2c-1.2-8.3-2.1-18.1-2-28.9c0.1-9.7,0.9-18.4,2-26c114.2,0,228.4,0,342.7,0
			c-0.9,8-1.6,17.2-1.6,27.5C820.2,1169.5,820.9,1178.7,821.8,1186.7z"/>
	</g>
	<g>
		<polygon class="st15" points="821.4,1258.7 855.6,1244.7 855.7,1243 819.1,1240.7 		"/>
		<polygon class="st15" points="821.5,1186.5 855.5,1202.7 855.5,1204.4 818.9,1204.4 		"/>
		<path class="st14" d="M820.1,1187.5l34.4,16.2c-0.6,4.7-1.3,11.2-1.4,19.1c0,8.7,0.7,15.8,1.4,20.7c-11.5,4.7-22.9,9.4-34.4,14.2
			V1187.5z"/>
		<path class="st15" d="M821.5,1258.7h-328c-0.6-10.7-1-22.2-1.1-34.4c0-13.5,0.4-26.1,1.1-37.9c109.3,0,218.7,0,328,0
			c-1.2,11.7-1.9,24.6-1.8,38.7C819.8,1237.2,820.5,1248.5,821.5,1258.7z"/>
		<g>
			<path id="XMLID_3_" class="st16" d="M562.8,1210.5c0-1-0.2-1.9-0.6-2.6c-0.4-0.7-1-1.3-1.9-1.8c-6.9-4-13.9-8-20.8-12
				c-1.9-1.1-3.7-1-5.5,0c-2.8,1.6-16.6,9.6-20.7,11.9c-1.7,1-2.5,2.5-2.5,4.4c0,8,0,16.1,0,24.1c0,1,0.2,1.8,0.6,2.6
				c0.4,0.8,1.1,1.4,1.9,1.9c4.1,2.4,17.9,10.3,20.7,11.9c1.9,1.1,3.7,1.1,5.5,0c6.9-4,13.9-8,20.8-12c0.9-0.5,1.5-1.1,1.9-1.9
				c0.4-0.7,0.6-1.6,0.6-2.6C562.8,1234.7,562.8,1218.6,562.8,1210.5"/>
			<path id="XMLID_4_" class="st17" d="M536.8,1222.5l-25.5,14.7c0.4,0.8,1.1,1.4,1.9,1.9c4.1,2.4,17.9,10.3,20.7,11.9
				c1.9,1.1,3.7,1.1,5.5,0c6.9-4,13.9-8,20.8-12c0.9-0.5,1.5-1.1,1.9-1.9L536.8,1222.5"/>
			<path id="XMLID_5_" class="st17" d="M529.2,1226.9c1.5,2.6,4.3,4.4,7.5,4.4c3.2,0,6-1.8,7.5-4.4l-7.4-4.3L529.2,1226.9"/>
			<path id="XMLID_6_" class="st18" d="M562.8,1210.5c0-1-0.2-1.9-0.6-2.6l-25.3,14.6l25.4,14.7c0.4-0.7,0.6-1.6,0.6-2.6
				C562.8,1234.7,562.8,1218.6,562.8,1210.5"/>
			<path id="XMLID_9_" class="st19" d="M544.2,1226.8c-1.5,2.6-4.3,4.4-7.5,4.4c-3.2,0-6-1.7-7.5-4.4c-0.7-1.3-1.1-2.7-1.1-4.3
				c0-4.8,3.9-8.6,8.6-8.6c3.2,0,6,1.7,7.4,4.3l7.5-4.3c-3-5.2-8.6-8.7-15-8.7c-9.6,0-17.3,7.8-17.3,17.3c0,3.1,0.8,6.1,2.3,8.6
				c3,5.2,8.6,8.7,15,8.7c6.4,0,12.1-3.5,15-8.7L544.2,1226.8"/>
			<g id="XMLID_32_">
				<rect id="XMLID_2_" x="552" y="1218.5" class="st19" width="1.7" height="8.3"/>
				<rect id="XMLID_30_" x="555.8" y="1218.5" class="st19" width="1.7" height="8.3"/>
				<rect id="XMLID_31_" x="550.6" y="1219.9" class="st19" width="8.3" height="1.7"/>
				<rect id="XMLID_23_" x="550.6" y="1223.7" class="st19" width="8.3" height="1.7"/>
			</g>
		</g>
	</g>
	<g>
		<g>
			<g>
				<path class="st20" d="M519,1162.7c0-2.3-1.2-4.2-3.9-4.9v9.8C517.3,1167,519,1165.3,519,1162.7z"/>
				<path class="st20" d="M515.1,1140.8v5.6h6.7v2.7h-6.7v6c1.4,0.1,2.7,0.5,3.8,1.2c1.8,1,3.4,3.1,3.4,6c0,4.1-2.9,7.3-7.2,7.9v7.1
					c4.4-1.7,8.7-3.5,13.1-5.2c0.9-10.4,1.7-20.8,2.6-31.2H515.1z"/>
			</g>
			<g>
				<path class="st21" d="M519,1162.7c0-2.3-1.2-4.2-3.9-4.9v9.8C517.3,1167,519,1165.3,519,1162.7z"/>
				<path class="st21" d="M515.1,1143.2v3.3h6.7v2.7h-6.7v6c1.4,0.1,2.7,0.5,3.8,1.2c1.8,1,3.4,3.1,3.4,6c0,4.1-2.9,7.3-7.2,7.9v5
					c3.7-1.4,7.5-2.9,11.2-4.3c0.7-9.2,1.5-18.5,2.2-27.7H515.1z"/>
			</g>
			<g>
				<path class="st20" d="M511.9,1155.2c0.5-0.1,1-0.1,1.9-0.1c0.4,0,0.9,0,1.3,0.1v-6h-2.3L511.9,1155.2z"/>
				<path class="st20" d="M513.5,1170.4c-2.6,0-4.7-0.7-5.8-1.4l0.8-2.4c1,0.6,2.9,1.3,5,1.3c0.6,0,1.2-0.1,1.7-0.2v-9.7
					c-0.8-0.2-1.8-0.3-2.9-0.3c-1.3,0-2.4,0.1-3.2,0.3l1.5-11.3h4.6v-5.6h-15.7c0.9,10.4,1.7,20.8,2.6,31.2
					c4.4,1.7,8.7,3.5,13.1,5.2v-7.1C514.6,1170.3,514.1,1170.4,513.5,1170.4z"/>
			</g>
		</g>
		<g>
			<g>
				<path class="st22" d="M556.3,1163.8c0-2.5-1.8-3.9-4-4.5v8.9C555.4,1167.7,556.4,1165.5,556.3,1163.8z"/>
				<path class="st22" d="M555.5,1152.7c0-1.7-0.9-3.2-3.2-3.5v7.1C554,1155.9,555.5,1154.7,555.5,1152.7z"/>
				<path class="st22" d="M552.3,1140.9v5.7c4.4,0.1,6.4,2.8,6.4,5.6c0,2.4-1.4,4.5-4.3,5.5v0.1c2.9,0.6,5.2,2.7,5.2,6
					c0,3.5-2.5,6.5-7.3,7v6.6c4.4-1.7,8.7-3.5,13.1-5.2c0.9-10.4,1.7-20.8,2.6-31.2H552.3z"/>
			</g>
			<path class="st22" d="M551.1,1170.9c-2.6,0-4.9-0.8-6.1-1.6l0.9-2.5c0.9,0.6,3,1.5,5.2,1.5c0.5,0,0.9,0,1.4-0.1v-8.9
				c-0.7-0.2-1.4-0.2-2.1-0.2h-1.8v-2.4h1.8c0.7,0,1.4-0.1,2.1-0.3v-7.1c-0.3,0-0.6-0.1-1-0.1c-1.9,0-3.7,0.8-4.7,1.6l-0.8-2.3
				c1.2-0.9,3.6-1.8,6.1-1.8c0.1,0,0.3,0,0.4,0v-5.7h-15.7c0.9,10.4,1.7,20.8,2.6,31.2c4.4,1.7,8.7,3.5,13.1,5.2v-6.6
				C552,1170.9,551.5,1170.9,551.1,1170.9z"/>
			<g>
				<path class="st23" d="M555.5,1152.7c0-1.7-0.9-3.2-3.2-3.5v7.1C554,1155.9,555.5,1154.7,555.5,1152.7z"/>
				<path class="st23" d="M556.3,1163.8c0-2.5-1.8-3.9-4-4.5v8.9C555.4,1167.7,556.4,1165.5,556.3,1163.8z"/>
				<path class="st23" d="M552.3,1143.2v3.4c4.4,0.1,6.4,2.8,6.4,5.6c0,2.4-1.4,4.5-4.3,5.5v0.1c2.9,0.6,5.2,2.7,5.2,6
					c0,3.5-2.5,6.5-7.3,7v4.5c3.7-1.4,7.5-2.9,11.2-4.3c0.7-9.2,1.5-18.5,2.2-27.7H552.3z"/>
			</g>
		</g>
		<path class="st24" d="M603.9,1140.9h-24.4c-2.8,0-5,2.2-5,5v24.4c0,2.8,2.2,5,5,5h24.4c2.8,0,5-2.2,5-5v-24.4
			C608.9,1143.2,606.7,1140.9,603.9,1140.9z M594.4,1164.4c0,2.4-0.5,4.3-1.6,5.6c-1,1.3-2.5,1.9-4.5,1.9c-0.9,0-1.7-0.2-2.4-0.5
			v-3.8c0.6,0.5,1.4,0.8,2.2,0.8c1.7,0,2.6-1.4,2.6-4.1v-10.8h3.8V1164.4z M605.6,1169.6c-0.3,0.5-0.7,1-1.2,1.3
			c-0.5,0.3-1.1,0.6-1.8,0.7c-0.7,0.2-1.4,0.2-2.1,0.2c-1.3,0-2.5-0.2-3.7-0.7v-3.2c0.6,0.4,1.2,0.7,1.8,0.9
			c0.6,0.2,1.2,0.3,1.7,0.3c0.7,0,1.2-0.1,1.5-0.3c0.4-0.2,0.6-0.5,0.6-0.9c0-0.3-0.1-0.5-0.3-0.6c-0.2-0.2-0.4-0.3-0.7-0.4
			c-0.3-0.1-0.6-0.2-0.9-0.3c-0.3-0.1-0.6-0.2-0.9-0.3c-0.5-0.2-0.9-0.4-1.3-0.6c-0.4-0.2-0.7-0.5-0.9-0.8c-0.2-0.3-0.4-0.6-0.6-1
			c-0.1-0.4-0.2-0.8-0.2-1.4c0-0.7,0.1-1.3,0.4-1.9c0.3-0.5,0.7-1,1.2-1.3c0.5-0.3,1-0.6,1.7-0.7c0.6-0.2,1.3-0.2,2-0.2
			c0.5,0,1.1,0,1.6,0.1c0.5,0.1,1.1,0.2,1.6,0.4v3.1c-0.5-0.3-1-0.5-1.5-0.7c-0.5-0.1-1.1-0.2-1.6-0.2c-0.2,0-0.5,0-0.7,0.1
			c-0.2,0-0.4,0.1-0.6,0.2c-0.2,0.1-0.3,0.2-0.4,0.3c-0.1,0.1-0.1,0.3-0.1,0.5c0,0.2,0.1,0.4,0.2,0.6c0.1,0.2,0.3,0.3,0.5,0.4
			c0.2,0.1,0.5,0.2,0.8,0.3c0.3,0.1,0.6,0.2,0.8,0.3c0.5,0.2,0.9,0.4,1.3,0.6c0.4,0.2,0.7,0.5,1,0.8c0.3,0.3,0.5,0.6,0.7,1
			c0.2,0.4,0.2,0.9,0.2,1.4C606.1,1168.4,605.9,1169.1,605.6,1169.6z"/>
	</g>
</g>
</svg>
